<svg preserveAspectRatio="none" width="100%" height="100%" overflow="visible" style="display: block;" viewBox="0 0 22.0756 22" fill="none" xmlns="http://www.w3.org/2000/svg">
<path id="Vector" d="M10.6548 0.0155213C4.07889 0.359133 -0.261972 5.51647 0.0122868 12.0199C0.132078 14.8665 1.2764 17.3159 1.54751 20.0175C1.61686 20.7174 1.41511 21.5811 2.22212 21.8869C3.21513 22.262 4.73774 21.6316 5.56997 21.0547C5.85369 20.8624 6.1248 20.6385 6.33286 20.3611C7.19346 20.9317 8.00993 21.4834 9.03447 21.7293C13.5456 22.8106 18.4885 20.3359 20.6857 16.3607C24.8154 8.89269 19.2325 -0.43212 10.6548 0.0155213ZM8.10135 15.601C7.74513 15.8784 7.40152 16.2567 7.00747 16.4742C6.43689 16.78 6.26035 16.4616 6.04599 15.9572C5.37137 14.3527 5.28941 11.6195 5.68346 9.93929C6.21306 7.6538 7.98156 5.64256 10.4121 5.4282C12.8709 5.21068 15.1533 6.45903 16.1841 8.713C18.4665 13.7285 12.6251 18.6809 8.10135 15.6042V15.601Z" fill="var(--fill-0, #2D292A)"/>
</svg>
